<svg width="567" height="535" viewBox="0 0 567 535" fill="none" xmlns="http://www.w3.org/2000/svg">
<path d="M287.453 463.095C406.021 463.095 502.14 460.267 502.14 456.779C502.14 453.291 406.021 450.463 287.453 450.463C168.886 450.463 72.7676 453.291 72.7676 456.779C72.7676 460.267 168.886 463.095 287.453 463.095Z" fill="#F5F8FF"/>
<path d="M316.79 454.224H171.025C159.202 454.224 151.243 444.639 153.247 432.816L211.954 86.5921C213.958 74.7685 225.169 65.1836 236.992 65.1836H382.756C394.579 65.1836 402.539 74.7685 400.534 86.5921L341.828 432.816C339.823 444.639 328.613 454.224 316.79 454.224Z" fill="#183D9D"/>
<path d="M298.584 454.224H152.819C140.996 454.224 133.037 444.639 135.041 432.816L193.748 86.5921C195.752 74.7685 206.962 65.1836 218.786 65.1836H364.55C376.373 65.1836 384.333 74.7685 382.328 86.5921L323.622 432.816C321.617 444.639 310.407 454.224 298.584 454.224Z" fill="#D1E8F7"/>
<path d="M299.421 442.649H155.907C149.767 442.649 145.635 437.672 146.676 431.533L204.947 87.8747C205.988 81.7354 211.809 76.7588 217.948 76.7588H361.463C367.602 76.7588 371.735 81.7354 370.694 87.8747L312.422 431.533C311.381 437.672 305.561 442.649 299.421 442.649Z" fill="white"/>
<path d="M313.005 192.549H175.781L190.083 113.538C191.02 108.72 195.685 104.815 200.502 104.815H330.069C334.886 104.815 338.032 108.72 337.095 113.538L323.424 183.827C322.487 188.643 317.823 192.549 313.005 192.549Z" fill="url(#paint0_linear_5_3929)"/>
<path d="M301.945 182.382H96.5118C91.6948 182.382 88.5487 178.477 89.4857 173.659L103.156 103.37C104.093 98.5528 108.758 94.6475 113.575 94.6475H319.009C323.826 94.6475 326.972 98.5528 326.035 103.37L312.364 173.659C311.427 178.477 306.762 182.382 301.945 182.382Z" fill="#0094FF"/>
<path d="M288.839 433.689L161.424 434.294C156.606 434.294 153.461 430.389 154.398 425.572L168.068 355.283C169.005 350.465 173.67 346.56 178.487 346.56L305.902 345.955C310.719 345.955 313.865 349.86 312.928 354.678L299.258 424.967C298.321 429.784 293.656 433.689 288.839 433.689Z" fill="#0094FF"/>
<path d="M175.437 412.405C179.063 384.048 206.006 361.06 235.616 361.06C265.227 361.06 286.292 384.048 282.666 412.405" stroke="#2153D3" stroke-width="16.5208" stroke-miterlimit="10" stroke-linecap="round"/>
<path d="M175.437 412.405C179.063 384.048 206.006 361.06 235.616 361.06C250.271 361.06 262.834 366.691 271.345 375.818" stroke="white" stroke-width="16.5208" stroke-miterlimit="10" stroke-linecap="round"/>
<path d="M273.602 336.018H182.37C177.5 336.018 174.209 332.07 175.019 327.2L194.287 211.303C195.096 206.434 199.7 202.487 204.57 202.487H295.801C300.671 202.487 303.962 206.434 303.153 211.303L283.884 327.2C283.075 332.07 278.471 336.018 273.602 336.018Z" fill="url(#paint1_linear_5_3929)"/>
<path d="M210.463 263.774H198.024C197.34 263.797 196.684 264.052 196.164 264.498C195.645 264.943 195.292 265.553 195.165 266.226L188.409 306.862C188.343 307.163 188.348 307.475 188.421 307.774C188.495 308.073 188.635 308.351 188.832 308.587C189.029 308.824 189.278 309.013 189.559 309.139C189.84 309.264 190.146 309.324 190.453 309.314H202.892C203.577 309.291 204.233 309.036 204.752 308.59C205.272 308.144 205.625 307.535 205.752 306.862L212.508 266.226C212.573 265.925 212.569 265.613 212.496 265.314C212.423 265.015 212.282 264.737 212.084 264.5C211.888 264.264 211.639 264.075 211.358 263.95C211.077 263.824 210.771 263.763 210.463 263.774Z" fill="white"/>
<path d="M233.158 277.678H220.72C220.035 277.701 219.379 277.956 218.859 278.402C218.339 278.848 217.987 279.457 217.86 280.13L213.415 306.863C213.35 307.163 213.354 307.475 213.427 307.774C213.501 308.073 213.641 308.351 213.839 308.588C214.036 308.824 214.284 309.013 214.565 309.139C214.846 309.265 215.152 309.325 215.46 309.314H227.899C228.583 309.291 229.239 309.036 229.759 308.59C230.278 308.144 230.631 307.535 230.758 306.863L235.202 280.13C235.268 279.829 235.264 279.517 235.191 279.218C235.117 278.919 234.977 278.641 234.78 278.404C234.582 278.168 234.334 277.979 234.053 277.853C233.772 277.727 233.466 277.668 233.158 277.678Z" fill="white"/>
<path d="M263.202 238.559H250.763C250.079 238.582 249.423 238.837 248.903 239.283C248.383 239.729 248.03 240.338 247.903 241.01L236.955 306.863C236.89 307.163 236.894 307.476 236.968 307.774C237.041 308.073 237.181 308.351 237.378 308.588C237.576 308.824 237.824 309.013 238.105 309.139C238.386 309.265 238.692 309.325 238.999 309.314H251.438C252.123 309.291 252.779 309.036 253.298 308.59C253.819 308.145 254.171 307.535 254.298 306.863L265.246 241.01C265.311 240.71 265.307 240.398 265.234 240.099C265.161 239.8 265.021 239.522 264.823 239.285C264.626 239.049 264.377 238.86 264.096 238.734C263.816 238.608 263.509 238.548 263.202 238.559Z" fill="white"/>
<path d="M284.607 255.629H272.168C271.484 255.652 270.828 255.907 270.308 256.353C269.788 256.798 269.436 257.408 269.309 258.08L261.199 306.862C261.133 307.163 261.137 307.475 261.211 307.774C261.284 308.073 261.424 308.351 261.621 308.588C261.819 308.824 262.067 309.013 262.348 309.139C262.629 309.265 262.935 309.324 263.243 309.314H275.682C276.366 309.291 277.022 309.036 277.542 308.59C278.062 308.144 278.415 307.535 278.542 306.862L286.652 258.08C286.717 257.78 286.713 257.468 286.64 257.169C286.566 256.87 286.425 256.592 286.228 256.355C286.031 256.119 285.783 255.93 285.502 255.804C285.221 255.678 284.915 255.618 284.607 255.629Z" fill="white"/>
<path d="M203.391 216.745H237.069" stroke="white" stroke-width="10" stroke-miterlimit="10" stroke-linecap="round"/>
<path d="M201.49 228.18H218.329" stroke="white" stroke-width="10" stroke-miterlimit="10" stroke-linecap="round"/>
<path opacity="0.6" d="M192.039 317.596H198.553" stroke="white" stroke-width="6" stroke-miterlimit="10" stroke-linecap="round"/>
<path opacity="0.6" d="M217.046 317.596H223.559" stroke="white" stroke-width="6" stroke-miterlimit="10" stroke-linecap="round"/>
<path opacity="0.6" d="M240.586 317.596H247.099" stroke="white" stroke-width="6" stroke-miterlimit="10" stroke-linecap="round"/>
<path opacity="0.6" d="M264.829 317.596H271.342" stroke="white" stroke-width="6" stroke-miterlimit="10" stroke-linecap="round"/>
<path d="M393.272 336.018H302.041C297.171 336.018 293.88 332.07 294.689 327.2L313.958 211.303C314.767 206.434 319.37 202.487 324.24 202.487H415.472C420.342 202.487 423.633 206.434 422.823 211.303L403.555 327.2C402.746 332.07 398.142 336.018 393.272 336.018Z" fill="url(#paint2_linear_5_3929)"/>
<path d="M327.771 281.246H315.332C314.648 281.269 313.991 281.524 313.472 281.97C312.952 282.416 312.6 283.025 312.473 283.697L308.08 306.863C308.014 307.163 308.019 307.475 308.092 307.774C308.165 308.073 308.306 308.351 308.503 308.588C308.7 308.824 308.948 309.013 309.23 309.139C309.51 309.265 309.816 309.325 310.124 309.314H322.563C323.247 309.291 323.904 309.036 324.423 308.59C324.943 308.145 325.296 307.535 325.423 306.863L329.815 283.697C329.881 283.397 329.877 283.085 329.803 282.786C329.73 282.487 329.589 282.209 329.392 281.972C329.195 281.736 328.947 281.547 328.666 281.421C328.385 281.295 328.079 281.235 327.771 281.246Z" fill="white"/>
<path d="M357.527 245.375H345.088C344.404 245.398 343.748 245.653 343.228 246.099C342.708 246.545 342.355 247.154 342.228 247.826L333.086 306.862C333.021 307.163 333.025 307.475 333.098 307.774C333.172 308.073 333.312 308.351 333.509 308.588C333.706 308.824 333.955 309.013 334.236 309.139C334.517 309.265 334.823 309.324 335.131 309.314H347.57C348.254 309.291 348.91 309.036 349.43 308.59C349.949 308.144 350.302 307.535 350.429 306.862L359.571 247.826C359.637 247.526 359.632 247.214 359.559 246.915C359.486 246.616 359.346 246.338 359.148 246.101C358.951 245.865 358.703 245.676 358.421 245.55C358.141 245.424 357.835 245.364 357.527 245.375Z" fill="white"/>
<path d="M378.757 262.231H366.318C365.634 262.254 364.978 262.509 364.458 262.955C363.938 263.401 363.585 264.01 363.458 264.682L356.626 306.862C356.561 307.163 356.565 307.475 356.638 307.774C356.711 308.073 356.852 308.351 357.049 308.588C357.247 308.824 357.495 309.013 357.776 309.139C358.057 309.265 358.363 309.324 358.671 309.314H371.109C371.794 309.291 372.45 309.036 372.97 308.59C373.489 308.144 373.842 307.535 373.969 306.862L380.801 264.682C380.867 264.382 380.862 264.07 380.789 263.771C380.716 263.472 380.576 263.194 380.378 262.957C380.181 262.721 379.933 262.532 379.651 262.406C379.371 262.28 379.065 262.22 378.757 262.231Z" fill="white"/>
<path d="M404.278 255.629H391.839C391.154 255.652 390.499 255.907 389.979 256.353C389.459 256.798 389.107 257.408 388.979 258.08L380.87 306.862C380.804 307.163 380.808 307.475 380.881 307.774C380.954 308.073 381.095 308.351 381.292 308.588C381.49 308.824 381.738 309.013 382.019 309.139C382.3 309.265 382.606 309.324 382.914 309.314H395.352C396.037 309.291 396.693 309.036 397.213 308.59C397.732 308.144 398.085 307.535 398.212 306.862L406.322 258.08C406.387 257.78 406.384 257.468 406.311 257.169C406.237 256.87 406.096 256.592 405.899 256.355C405.702 256.119 405.453 255.93 405.173 255.804C404.891 255.678 404.585 255.618 404.278 255.629Z" fill="white"/>
<path d="M323.062 216.745H356.74" stroke="white" stroke-width="10" stroke-miterlimit="10" stroke-linecap="round"/>
<path d="M321.161 228.18H338" stroke="white" stroke-width="10" stroke-miterlimit="10" stroke-linecap="round"/>
<path opacity="0.6" d="M311.71 317.596H318.223" stroke="white" stroke-width="6" stroke-miterlimit="10" stroke-linecap="round"/>
<path opacity="0.6" d="M336.717 317.596H343.23" stroke="white" stroke-width="6" stroke-miterlimit="10" stroke-linecap="round"/>
<path opacity="0.6" d="M360.257 317.596H366.77" stroke="white" stroke-width="6" stroke-miterlimit="10" stroke-linecap="round"/>
<path opacity="0.6" d="M384.5 317.596H391.013" stroke="white" stroke-width="6" stroke-miterlimit="10" stroke-linecap="round"/>
<path d="M6.02255 466.268L31.9286 520.463L28.7159 521.999C27.6313 522.517 26.3858 522.584 25.2528 522.183C24.1198 521.784 23.1919 520.949 22.674 519.865L0.675101 473.846C0.157294 472.762 0.0907578 471.516 0.490607 470.383C0.89106 469.25 1.72464 468.322 2.80925 467.804L6.02255 466.268Z" fill="#3C6BE8"/>
<path d="M34.2267 454.03L16.3478 461.421L26.3779 475.605L42.2279 470.769L34.2267 454.03Z" fill="#FFCCB3"/>
<path d="M22.8065 461.988C22.8065 461.988 29.7866 472.768 30.8398 478.793C31.8929 484.817 35.4988 515.289 34.5285 518.035C33.8311 520.01 31.2977 520.857 29.6904 521.036C29.3378 521.074 28.9821 521.001 28.673 520.827C28.3639 520.654 28.1159 520.388 27.9646 520.067L4.44855 470.873C4.05536 470.052 4.00031 469.11 4.2943 468.249C4.58889 467.388 5.20892 466.677 6.02253 466.268C9.27577 464.634 14.2524 462.184 16.3478 461.421C19.5865 460.242 21.7243 460.25 22.8065 461.988Z" fill="#3C72FF"/>
<path d="M149.371 487.779L125.076 532.627C124.503 533.684 123.535 534.47 122.383 534.812C121.231 535.155 119.99 535.026 118.934 534.453L115.802 532.757L144.414 479.94L147.545 481.637C148.602 482.209 149.388 483.177 149.73 484.33C150.073 485.481 149.944 486.722 149.371 487.779Z" fill="#3C6BE8"/>
<path d="M116.864 466.293L134.347 474.578L123.613 488.237L108.027 482.606L116.864 466.293Z" fill="#FFCCB3"/>
<path d="M127.868 474.817C127.868 474.817 120.351 485.231 118.995 491.194C117.64 497.157 112.498 527.408 113.328 530.201C113.925 532.208 116.412 533.182 118.009 533.442C118.359 533.498 118.718 533.443 119.035 533.285C119.353 533.127 119.613 532.874 119.781 532.562L145.754 484.618C146.187 483.818 146.29 482.88 146.04 482.005C145.789 481.131 145.206 480.389 144.414 479.94C141.248 478.143 136.4 475.445 134.347 474.578C131.172 473.237 129.036 473.136 127.868 474.817Z" fill="#3C72FF"/>
<path d="M169.534 402.406C169.534 402.406 176.226 435.642 171.032 442.154L38.6861 476.043L27.4002 454.903L104.685 419.833L120.163 398.619L169.534 402.406Z" fill="#D1E8F7"/>
<path d="M136.043 426.122L106.843 435.888L93.2168 441.601L110.936 457.543L95.0945 461.121L51.8848 426.122H136.043Z" fill="#183D9D"/>
<path d="M35.693 452.131L36.5913 455.252L57.11 471.268L76.3844 466.564C76.3844 466.564 39.2021 448.87 35.693 452.131Z" fill="#183D9D"/>
<path d="M72.8384 400.467C72.8384 400.467 35.4154 398.437 16.8662 400.068C4.92219 401.117 0.616412 431.682 10.1481 437.242L112.443 489.619L124.498 467.837L58.508 423.169L105.719 416.528L72.8384 400.467Z" fill="#D1E8F7"/>
<path d="M20.0118 439.844C31.0636 439.844 40.023 430.885 40.023 419.833C40.023 408.781 31.0636 399.821 20.0118 399.821C8.9594 399.821 0 408.781 0 419.833C0 430.885 8.9594 439.844 20.0118 439.844Z" fill="#D1E8F7"/>
<path d="M167.708 442.429C178.76 442.429 187.719 433.469 187.719 422.418C187.719 411.365 178.76 402.406 167.708 402.406C156.655 402.406 147.696 411.365 147.696 422.418C147.696 433.469 156.655 442.429 167.708 442.429Z" fill="#D1E8F7"/>
<path d="M112.889 327.986C110.781 317.579 115.739 317.847 117.389 316.192C117.389 316.192 123.579 311.088 128.295 315.846C133.288 320.879 161.906 359.975 161.906 359.975L143.999 376.444L140.634 372.427L131.915 362.028L122.59 350.915L121.431 349.65L108.851 335.401C108.851 335.401 114.082 333.466 112.889 327.986Z" fill="#3C72FF"/>
<path d="M122.82 338.438C130.026 336.024 133.911 328.226 131.498 321.019C129.084 313.812 121.285 309.927 114.079 312.341C106.872 314.755 102.987 322.553 105.401 329.76C107.815 336.966 115.613 340.851 122.82 338.438Z" fill="#3C72FF"/>
<path d="M121.596 349.594C121.235 347.419 120.513 343.068 119.736 339.103L115.605 319.912C115.605 319.912 126.7 336.311 131.812 347.734C135.598 356.294 139.989 365.019 140.716 372.399L131.998 362.001L122.673 350.887L121.596 349.594Z" fill="#465393"/>
<path d="M179.791 315.959C184.046 308.198 182.001 306.881 183.811 302.465C185.595 298.157 182.428 287.476 185.46 288.932C188.49 290.388 189.429 294.259 189.429 294.259C191.502 290.592 193.411 283.844 198.373 283.072C203.336 282.3 203.775 283.862 206.588 286.17C214.072 292.397 204.529 301.754 202.936 305.317C201.912 307.551 194.382 314.361 193.548 315.849L189.758 321.346L179.791 315.959Z" fill="#FFCCB3"/>
<path d="M194.411 294.74L200.459 283.575L194.411 294.74Z" fill="#E56441"/>
<path d="M194.411 294.74L200.459 283.575" stroke="#E56441" stroke-width="0.94666" stroke-linecap="round"/>
<path d="M198.373 296.548L204.965 286.149L198.373 296.548Z" fill="#E56441"/>
<path d="M198.373 296.548L204.965 286.149" stroke="#E56441" stroke-width="0.94666" stroke-linecap="round"/>
<path d="M203.081 298.547L206.848 292.25L203.081 298.547Z" fill="#E56441"/>
<path d="M203.081 298.547L206.848 292.25" stroke="#E56441" stroke-width="0.94666" stroke-linecap="round"/>
<path d="M192.917 304.569C192.885 300.703 190.565 296.025 190.565 296.025L192.917 304.569Z" fill="#E56441"/>
<path d="M192.917 304.569C192.885 300.703 190.565 296.025 190.565 296.025" stroke="#E56441" stroke-width="0.94666" stroke-linecap="round"/>
<path d="M143.848 359.663L180.259 311.174C180.491 310.889 180.821 310.7 181.184 310.643C181.546 310.587 181.918 310.667 182.225 310.868L191.76 317.173C192.213 317.48 192.535 317.944 192.665 318.476C192.795 319.008 192.723 319.569 192.462 320.05L163.181 374.05L143.848 359.663Z" fill="#3C72FF"/>
<path d="M152.695 380.144C159.429 380.144 164.888 374.685 164.888 367.951C164.888 361.217 159.429 355.757 152.695 355.757C145.961 355.757 140.501 361.217 140.501 367.951C140.501 374.685 145.961 380.144 152.695 380.144Z" fill="#3C72FF"/>
<path d="M98.6235 305.474C98.6235 305.474 119.057 310.881 122.564 312.284C126.072 313.687 126.306 319.299 126.54 323.274C126.773 327.25 125.988 416.528 125.988 416.528L80.767 414.789L46.9487 394.993C46.9487 394.993 48.4192 324.154 48.8868 320.88C49.3544 317.606 45.6796 314.788 49.6629 313.139L75.269 306.375L98.6235 305.474Z" fill="#3C72FF"/>
<path d="M64.5953 337.278L64.9594 403.24L45.5186 381.572L54.9245 335.225L64.5953 337.278Z" fill="#465393"/>
<path d="M71.9341 307.383C71.9341 307.383 69.0413 313.201 71.9341 317.214C74.8268 321.227 86.4073 325.125 94.3189 325.01C102.23 324.896 106.422 317.353 102.836 306.792L89.7325 303.111L75.2689 306.375L71.9341 307.383Z" fill="#465393"/>
<path d="M104.685 257.246C104.685 257.246 110.382 269.539 104.306 272.079C98.2297 274.618 98.9375 257.842 104.685 257.246Z" fill="#93523E"/>
<path d="M98.2588 296.584L99.9072 315.17C99.9072 315.17 101.487 317.661 95.3334 318.97C91.3748 319.811 80.715 315.611 78.6468 314.351C77.7673 313.884 77.0783 313.126 76.6984 312.206C76.3185 311.285 76.2713 310.262 76.5647 309.31C77.1932 307.036 79.798 288.088 79.798 288.088L98.2588 296.584Z" fill="#FFCCB3"/>
<path d="M98.5764 300.167L88.7574 295.316L99.7039 312.878L98.5764 300.167Z" fill="#2153D3"/>
<path d="M101.413 260.803C101.413 260.803 107.176 275.255 109.266 285.393C111.375 295.621 108.01 298.176 103.571 299.68C100.069 300.867 94.4768 301.813 90.6731 300.622C83.7366 298.45 76.9506 292.182 75.3276 290.895C72.8148 288.902 70.3341 279.861 74.0168 274.746C77.7001 269.631 92.2114 253.557 101.413 260.803Z" fill="#FFCCB3"/>
<path d="M93.9947 280.751C94.7611 280.449 95.0091 279.257 94.5488 278.087C94.0885 276.917 93.0946 276.213 92.3282 276.514C91.5617 276.816 91.3137 278.009 91.7735 279.179C92.2338 280.348 93.2283 281.052 93.9947 280.751Z" fill="#080B09"/>
<path d="M104.527 276.53C105.294 276.229 105.542 275.036 105.082 273.866C104.622 272.697 103.627 271.993 102.861 272.294C102.095 272.596 101.847 273.788 102.307 274.958C102.767 276.128 103.761 276.832 104.527 276.53Z" fill="#080B09"/>
<path d="M100.665 278.525C100.665 278.525 99.7287 281.358 101.696 281.082C103.566 280.754 104.835 281.678 103.201 283.575" fill="#E56441"/>
<path d="M100.665 278.525C100.665 278.525 99.7287 281.358 101.696 281.082C103.566 280.754 104.835 281.678 103.201 283.575" stroke="#E56441" stroke-width="0.94666" stroke-linecap="round"/>
<path d="M103.292 286.079L103.302 286.077L103.312 286.074C103.339 286.065 103.368 286.065 103.395 286.071C103.423 286.077 103.448 286.091 103.469 286.111C103.489 286.131 103.505 286.156 103.512 286.183C103.52 286.211 103.52 286.24 103.513 286.267L103.507 286.291L103.505 286.315C103.384 287.555 103.076 288.291 102.701 288.705C102.34 289.106 101.886 289.239 101.371 289.199C100.843 289.159 100.263 288.936 99.7009 288.631C99.1456 288.329 98.6296 287.958 98.2309 287.64C98.2037 287.615 98.1837 287.583 98.1729 287.547C98.1608 287.51 98.1596 287.471 98.1692 287.432C98.1783 287.395 98.1983 287.36 98.2255 287.333C98.2533 287.305 98.2878 287.285 98.3259 287.276L98.3289 287.276C99.8497 286.89 102.144 286.35 103.292 286.079Z" fill="#E56441" stroke="#E56441"/>
<path d="M87.3219 275.799L87.4659 276.001C87.6504 276.314 87.951 276.541 88.3025 276.633C88.6533 276.725 89.0271 276.674 89.3411 276.492L94.6565 273.217C94.9202 273.07 95.1186 272.828 95.213 272.54C95.3068 272.253 95.2898 271.941 95.1646 271.666C95.0956 271.493 94.9916 271.338 94.8579 271.209C94.7248 271.08 94.5657 270.981 94.3909 270.918C94.2167 270.855 94.031 270.83 93.8459 270.844C93.6608 270.859 93.4811 270.912 93.3184 271.001L87.8591 274.074C87.7084 274.15 87.5747 274.255 87.4653 274.383C87.3564 274.512 87.2741 274.661 87.2245 274.823C87.1743 274.983 87.1568 275.153 87.1737 275.32C87.1906 275.488 87.2408 275.651 87.3219 275.799Z" fill="#080B09"/>
<path d="M105.684 267.401L99.4462 267.979C99.2617 267.998 99.0833 268.057 98.923 268.15C98.7627 268.243 98.6241 268.369 98.5165 268.521C98.4088 268.671 98.3344 268.843 98.2981 269.025C98.2618 269.207 98.2642 269.395 98.3054 269.575C98.3592 269.873 98.5225 270.139 98.7633 270.322C99.0047 270.505 99.3053 270.591 99.6065 270.562L105.841 270.233C106.203 270.204 106.539 270.033 106.775 269.758C107.012 269.482 107.13 269.124 107.103 268.762L107.107 268.514C107.09 268.346 107.039 268.184 106.957 268.036C106.875 267.889 106.765 267.759 106.632 267.655C106.499 267.551 106.347 267.475 106.184 267.431C106.021 267.388 105.851 267.377 105.684 267.401Z" fill="#080B09"/>
<path d="M94.2615 263.687C94.2615 263.687 91.148 269.611 85.4993 271.368C79.8506 273.125 82.9375 282.041 82.9375 282.041C82.9375 282.041 79.0642 278.187 74.6121 280.356C70.1593 282.525 73.5389 291.037 79.6903 291.146L78.0171 300.724C78.0171 300.724 74.9018 296.845 71.6256 294.769C68.3488 292.693 56.579 284.634 61.7782 274.021C61.7782 274.021 57.7101 259.119 68.8672 251.393C80.0242 243.667 89.6811 246.582 89.6811 246.582C89.6811 246.582 92.3409 242.363 98.5062 243.224C104.671 244.086 106.093 255.204 104.051 259.224C102.01 263.245 98.6828 264.954 94.2615 263.687Z" fill="#93523E"/>
<path d="M47.7786 323.085C55.625 315.929 57.9418 320.32 60.2096 320.886C60.2096 320.886 67.7686 323.573 66.1099 330.065C64.3569 336.934 45.5186 381.572 45.5186 381.572L22.1901 374.671L23.9068 369.72L28.3481 356.898L33.0919 343.188L33.5819 341.544L39.3431 323.431C39.3431 323.431 43.6906 326.923 47.7786 323.085Z" fill="#3C72FF"/>
<path d="M63.317 335.47C68.2598 329.696 67.5859 321.01 61.8126 316.067C56.0393 311.124 47.3521 311.798 42.41 317.571C37.4672 323.345 38.1405 332.032 43.9144 336.975C49.6877 341.917 58.3743 341.244 63.317 335.47Z" fill="#3C72FF"/>
<path d="M43.2091 370.608L86.5198 413.049C86.772 413.316 86.916 413.668 86.9245 414.035C86.9329 414.402 86.8053 414.759 86.5658 415.038L79.0678 423.666C78.7043 424.075 78.2016 424.334 77.6572 424.393C77.1134 424.453 76.5665 424.307 76.1237 423.986L26.4172 387.893L43.2091 370.608Z" fill="#3C72FF"/>
<path d="M33.8353 390.489C40.5698 390.489 46.0292 385.03 46.0292 378.295C46.0292 371.561 40.5698 366.102 33.8353 366.102C27.1014 366.102 21.6421 371.561 21.6421 378.295C21.6421 385.03 27.1014 390.489 33.8353 390.489Z" fill="#3C72FF"/>
<path d="M104.298 362.433L80.7931 427.554H33.5323C33.5323 425.565 34.3223 423.658 35.7281 422.252C37.1345 420.846 39.0412 420.056 41.0296 420.056H75.2212L95.5179 362.433H104.298Z" fill="white"/>
<path d="M104.298 362.433H167.708L143.185 427.554H80.793L104.298 362.433Z" fill="url(#paint3_linear_5_3929)"/>
<path d="M192.839 150.06C192.839 150.06 203.405 147.835 206.756 152.973C210.107 158.111 213.458 167.764 221.054 166.512C228.65 165.26 234.458 140.015 242.054 140.239C249.65 140.462 246.299 156.994 254.565 157.218C262.831 157.441 260.821 148.058 267.523 148.058C274.226 148.058 271.991 168.165 280.704 168.388C289.417 168.612 288.523 142.473 301.704 142.919" stroke="white" stroke-width="5" stroke-miterlimit="10" stroke-linecap="round"/>
<path d="M161.997 146.587C167.378 133.37 162.197 118.771 150.426 113.979C138.655 109.187 124.751 116.016 119.37 129.233C113.99 142.45 119.17 157.049 130.941 161.841C142.712 166.633 156.617 159.803 161.997 146.587Z" stroke="#2153D3" stroke-width="16.5208" stroke-miterlimit="10" stroke-linecap="round"/>
<path d="M151.644 159.376C145.433 163.472 137.823 164.642 130.941 161.841C119.17 157.049 113.99 142.45 119.37 129.233C124.751 116.016 138.655 109.187 150.426 113.979" stroke="white" stroke-width="16.5208" stroke-miterlimit="10" stroke-linecap="round"/>
<path d="M200.78 112.447H247.272" stroke="white" stroke-width="10" stroke-miterlimit="10" stroke-linecap="round"/>
<path opacity="0.6" d="M198.577 125.271H217.492" stroke="white" stroke-width="10" stroke-miterlimit="10" stroke-linecap="round"/>
<path d="M552.759 431.191C552.626 431.206 552.566 431.28 552.638 431.34C552.578 431.414 552.578 431.414 552.596 431.548C552.312 432.47 552.112 433.415 551.997 434.373L563.466 443.591L564.737 442.164C564.737 442.164 560.502 436.928 558.917 435.404C558.234 434.733 557.623 434.121 557.012 433.509C556.48 432.957 556.002 432.33 555.542 431.838C554.901 430.958 553.044 431.296 553.025 431.161C552.953 431.102 552.759 431.191 552.759 431.191Z" fill="#233B62"/>
<path d="M466.033 351.094L477.109 361.827L539.034 421.629L540.165 422.659L540.655 423.419L540.728 423.479L549.499 436.769L550.479 438.29L550.805 438.797L556.74 447.851L551.852 450.282L550.436 450.979L548.44 451.943L545.289 453.574L545.234 453.648L541.889 455.368L541.726 455.115L534.104 440.547C532.628 437.733 530.553 435.274 528.03 433.34L460.691 381.792L447.892 371.993L466.033 351.094Z" fill="#FFCCB3"/>
<path d="M548.652 423.974C545.682 422.595 542.349 421.362 539.094 421.555C541.054 423.274 541.95 426.333 543.25 428.564C545.918 433.154 552.759 441.686 549.263 448.936C547.297 453.01 541.804 455.175 541.726 455.115C540.806 459.299 536.251 476.33 545.337 466.457C550.412 460.944 555.445 455.055 557.974 449.209C559.014 446.812 556.818 444.422 555.742 442.398C554.362 439.336 552.306 435.281 552.566 431.891L552.62 431.816C552.771 431.582 564.537 442.115 564.737 442.165C565.142 441.51 566.086 440.187 566.086 440.187C566.086 440.187 549.214 424.183 548.652 423.974Z" fill="#1C85E8"/>
<path d="M421.94 479.684C421.834 479.6 421.739 479.612 421.751 479.706C421.657 479.717 421.657 479.717 421.573 479.824C420.727 480.285 419.923 480.822 419.172 481.426L420.925 496.037L422.83 495.905C422.83 495.905 423.467 489.201 423.395 487.001C423.376 486.042 423.368 485.179 423.36 484.315C423.364 483.547 423.463 482.766 423.478 482.092C423.637 481.017 422.069 479.956 422.153 479.85C422.141 479.756 421.94 479.684 421.94 479.684Z" fill="#233B62"/>
<path d="M415.961 361.782L416.369 377.197L418.816 463.25L418.904 464.776L418.722 465.662L418.733 465.757L415.71 481.391L415.347 483.164L415.225 483.755L413.138 494.378L407.941 492.697L406.442 492.204L404.34 491.496L400.95 490.462L400.856 490.473L397.265 489.367L397.326 489.071L402.065 473.328C402.975 470.282 403.213 467.074 402.761 463.928L390.675 379.991L388.377 364.034L415.961 361.782Z" fill="#FFCCB3"/>
<path d="M424.05 471.65C422.892 468.589 421.373 465.378 418.911 463.238C419.112 465.841 417.612 468.653 416.979 471.154C415.677 476.303 414.602 487.186 407.033 489.924C402.78 491.462 397.337 489.166 397.326 489.071C393.743 491.419 378.575 500.405 391.973 499.703C399.456 499.31 407.173 498.62 413.07 496.212C415.488 495.224 415.591 491.98 416.236 489.781C417.393 486.628 418.755 482.288 421.311 480.047L421.406 480.036C421.677 479.973 422.721 495.729 422.83 495.905C423.576 495.719 425.174 495.431 425.174 495.431C425.174 495.431 424.307 472.196 424.05 471.65Z" fill="#1C85E8"/>
<path d="M399.277 246.126L377.385 338.57L377.345 345.132L395.146 454.594L423.489 451.526L415.267 346.984L437.816 292.438L433.258 247.707L399.277 246.126Z" fill="#1F2D49"/>
<path d="M396.212 361.023C406.784 361.023 415.354 352.453 415.354 341.881C415.354 331.31 406.784 322.739 396.212 322.739C385.64 322.739 377.07 331.31 377.07 341.881C377.07 352.453 385.64 361.023 396.212 361.023Z" fill="#1F2D49"/>
<path d="M422.452 329.606L417.053 283.932L415.267 346.984L422.452 329.606Z" fill="#0D1B33"/>
<path d="M458.368 245.838C458.368 245.838 468.573 262.985 468.706 277.344C468.912 298.896 461.139 337.54 461.139 337.54L529.004 406.136L512.847 430.361C512.847 430.361 454.938 382.312 430.436 359.489L424.948 348.377L417.053 283.931L429.121 245.838H458.368Z" fill="#1F2D49"/>
<path d="M399.277 246.126L458.719 246.737L464.496 258.692L398.272 250.369L399.277 246.126Z" fill="#0D1B33"/>
<path d="M443.919 365.044C454.491 365.044 463.063 356.474 463.063 345.902C463.063 335.33 454.491 326.76 443.919 326.76C433.347 326.76 424.777 335.33 424.777 345.902C424.777 356.474 433.347 365.044 443.919 365.044Z" fill="#1F2D49"/>
<path d="M392.338 119.094C392.338 119.094 393.135 127.98 390.791 136.521C388.446 145.063 370.694 163.15 386.437 177.888C402.18 192.625 421.439 153.101 421.439 153.101L415.41 134.846L394.561 113.155L392.338 119.094Z" fill="#1F2D49"/>
<path d="M440.368 121.169C440.368 121.169 445.093 127.171 455.858 132.077C466.42 136.891 477.792 144.805 475.451 162.055C473.104 179.304 441.88 165.907 432.706 156.025C423.532 146.145 424.795 128.503 424.795 128.503L440.368 121.169Z" fill="#1F2D49"/>
<path d="M416.219 153.491C416.219 153.491 404.236 158.233 402.406 159.696C400.577 161.16 398.84 173.105 395.729 178.776C392.619 184.448 388.069 194.916 394.715 204.532C401.361 214.147 400.654 221.782 400.654 221.782L399.24 245.902L456.511 246.958C457.019 246.974 457.521 246.882 457.987 246.69C458.453 246.497 458.87 246.208 459.221 245.841C459.566 245.474 459.826 245.037 459.996 244.561C460.159 244.084 460.219 243.577 460.177 243.075C459.542 236.042 456.632 226.166 456.402 214.968C456.094 199.792 455.864 149.083 455.864 149.083L430.912 148.3C425.887 149.167 416.219 153.491 416.219 153.491Z" fill="#0094FF"/>
<path d="M446.043 169.812C446.043 169.812 437.696 177.422 437.205 183.068C436.714 188.715 435.579 204.457 424.852 206.028C411.704 207.953 408.263 209.827 414.358 211.3C420.452 212.773 434.285 210.386 434.285 216.7C434.285 221.194 439.659 224.556 442.36 222.101C445.061 219.646 466.571 182.331 446.043 169.812Z" fill="#2153D3"/>
<path d="M345.378 176.19L340.853 170.398C339.906 169.043 338.647 167.935 337.181 167.168C334.954 166.053 331.541 163.974 330.354 161.895C328.388 158.591 320.641 149.667 327.361 142.73C329.849 140.17 329.227 140.776 334.2 140.852C339.173 140.929 339.937 146.089 342.422 149.467C342.422 149.467 342.98 145.571 345.727 143.791C348.475 142.01 346.651 152.884 348.765 157.004C350.878 161.125 349.17 162.683 354.177 169.922L345.378 176.19Z" fill="#FFCCB3"/>
<path d="M333.444 141.447L337.485 150.616L333.444 141.447Z" fill="#E56441"/>
<path d="M333.444 141.447L337.485 150.616" stroke="#E56441" stroke-width="0.94666" stroke-linecap="round"/>
<path d="M328.173 143.078L333.773 152.841L328.173 143.078Z" fill="#E56441"/>
<path d="M328.173 143.078L333.773 152.841" stroke="#E56441" stroke-width="0.94666" stroke-linecap="round"/>
<path d="M324.867 149.497L329.281 155.325L324.867 149.497Z" fill="#E56441"/>
<path d="M324.867 149.497L329.281 155.325" stroke="#E56441" stroke-width="0.94666" stroke-linecap="round"/>
<path d="M341.382 151.545C341.382 151.545 339.672 156.444 339.968 160.303L341.382 151.545Z" fill="#E56441"/>
<path d="M341.382 151.545C341.382 151.545 339.672 156.444 339.968 160.303" stroke="#E56441" stroke-width="0.94666" stroke-linecap="round"/>
<path d="M405.318 158.118C400.672 159.728 394.196 162.994 392.443 166.638L376.959 201.912L351.172 162.729L341.407 173.015L365.49 222.824C369.89 233.777 381.069 237.893 389.167 226.088L402.105 205.767L405.318 158.118Z" fill="#0094FF"/>
<path d="M398.715 188.483C398.715 188.483 397.318 186.075 397.318 198.646L389.167 226.088L402.105 205.767C412.484 191.813 404.284 188.086 398.715 188.483Z" fill="#2153D3"/>
<path d="M427.102 171.84L384.33 188.877C383.001 189.406 382.353 190.913 382.882 192.241L404.29 245.987C404.819 247.316 406.326 247.964 407.655 247.435L450.427 230.397C451.756 229.868 452.404 228.362 451.875 227.033L430.467 173.287C429.937 171.958 428.431 171.311 427.102 171.84Z" fill="#1C85E8"/>
<path d="M390.856 193.932L408.494 186.907" stroke="white" stroke-width="4" stroke-miterlimit="10" stroke-linecap="round"/>
<path d="M393.52 200.247L401.559 197.044" stroke="white" stroke-width="4" stroke-miterlimit="10" stroke-linecap="round"/>
<path d="M414.702 140.856L415.376 159.711C415.376 159.711 414.454 163.84 418.691 163.382C422.928 162.924 428.633 159.587 431.84 155.922C435.046 152.258 434.827 151.964 433.453 149.559C432.079 147.154 425.627 128.825 425.627 128.825L414.702 140.856Z" fill="#FFCCB3"/>
<path d="M414.799 142.437L422.612 137.462C422.612 137.462 419.15 152.656 415.376 159.711L414.799 142.437Z" fill="#FCBA9F"/>
<path d="M393.733 112.641C393.733 112.641 393.608 131.404 401.703 140.848C406.983 147.006 412.537 146.189 421.801 136.051C430.295 126.755 431.487 121.91 431.487 121.91L425.621 103.502C425.621 103.502 394.686 95.5639 393.733 112.641Z" fill="#FFCCB3"/>
<path d="M401.788 108.288C401.788 108.288 405.179 116.522 411.477 118.823C417.774 121.125 419.422 125.404 419.422 125.404C419.422 125.404 420.63 118.363 425.579 118.619C430.529 118.875 429.523 127.613 426.451 130.514C426.451 130.514 430.147 137.368 433.28 142.438L447.004 128.817C447.004 128.817 439.933 120.643 438.378 114.066C436.824 107.489 431.792 89.8807 412.609 91.047C390.087 92.4159 391.381 110.718 392.338 120.883C392.338 120.883 399.401 118.174 401.788 108.288Z" fill="#1F2D49"/>
<path d="M404.227 135.046L409.701 132.36C409.706 132.391 409.711 132.424 409.715 132.458C409.752 132.746 409.769 133.141 409.691 133.575C409.537 134.423 409.014 135.453 407.459 136.122C406.46 136.446 405.608 136.127 404.983 135.702C404.67 135.488 404.42 135.253 404.249 135.069C404.241 135.061 404.234 135.054 404.227 135.046Z" fill="#E56441" stroke="#E56441"/>
<path d="M398.262 127.425C398.954 127.254 399.311 126.289 399.059 125.269C398.808 124.249 398.043 123.561 397.351 123.732C396.659 123.903 396.302 124.868 396.553 125.888C396.806 126.907 397.57 127.596 398.262 127.425Z" fill="#080B09"/>
<path d="M408.521 125.048C409.213 124.877 409.57 123.912 409.318 122.892C409.066 121.872 408.302 121.184 407.61 121.355C406.918 121.526 406.561 122.491 406.813 123.51C407.064 124.53 407.829 125.219 408.521 125.048Z" fill="#080B09"/>
<path d="M394.282 121.926L399.503 120.728C399.59 120.7 399.664 120.642 399.712 120.564C399.759 120.485 399.776 120.392 399.76 120.302C399.702 120.149 399.614 120.009 399.5 119.89C399.386 119.772 399.249 119.678 399.099 119.614C398.948 119.55 398.785 119.517 398.621 119.517C398.456 119.518 398.294 119.552 398.144 119.616L394.05 121.351C393.708 121.435 393.856 122.032 394.282 121.926Z" fill="#080B09"/>
<path d="M411.812 117.253L405.012 119.384C404.967 119.172 404.966 118.952 405.011 118.74C405.056 118.528 405.144 118.327 405.271 118.15C405.398 117.974 405.56 117.827 405.748 117.717C405.936 117.608 406.144 117.539 406.36 117.514L411.792 116.806C411.963 116.764 412.068 117.19 411.812 117.253Z" fill="#080B09"/>
<path d="M401.924 124.016L401.186 129.521L403.131 130.46" fill="#E56441"/>
<path d="M401.924 124.016L401.186 129.521L403.131 130.46" stroke="#E56441" stroke-width="0.94666" stroke-linecap="round"/>
<path d="M407.1 220.545L390.236 225.384L388.175 235.775L392.011 247.277C392.011 247.277 394.709 245.462 394.146 241.229C393.584 236.995 407.834 237.116 410.446 231.794" fill="#FFCCB3"/>
<path d="M445.622 163.268C445.622 163.268 445.511 148.983 456.953 148.981C464.629 148.98 468.301 152.579 469.281 163.809C469.965 171.66 470.461 214.738 470.461 214.738C470.461 214.738 472.39 234.398 455.713 234.765L407.559 233.323L406.472 219.869L448.449 215.685L445.622 163.268Z" fill="#0094FF"/>
<path d="M410.801 161.482C410.801 161.482 415.143 160.246 414.439 155.98C413.753 151.783 413.726 148.139 415.104 148.646C415.104 148.646 416.319 150.73 423.876 148.414C431.384 146.184 430.913 143.609 430.913 143.609C430.913 143.609 431.975 142.667 432.769 145.084C433.561 147.5 435.573 154.19 439.825 153.708L440.974 166.179L418.36 173.622C418.311 173.709 407.859 163.584 410.801 161.482Z" fill="#0094FF"/>
<path d="M226.358 410.333H240.586" stroke="white" stroke-width="5" stroke-miterlimit="10" stroke-linecap="round"/>
<path opacity="0.5" d="M229.254 416.508H236.369" stroke="white" stroke-width="5" stroke-miterlimit="10" stroke-linecap="round"/>
<path d="M216.881 398.006L227.798 390.393L235.488 395.514L245.723 388.102" stroke="white" stroke-width="6.50414" stroke-linecap="round" stroke-linejoin="round"/>
<path d="M237.854 384.871H248.742V395.644" stroke="white" stroke-width="6.50414" stroke-linecap="round" stroke-linejoin="round"/>
<path d="M366.768 50.3518H324.572C324.056 50.3718 323.543 50.2708 323.073 50.0566C322.603 49.8431 322.19 49.5219 321.866 49.1202C321.542 48.7179 321.317 48.2461 321.208 47.741C321.099 47.2365 321.109 46.7139 321.239 46.2136L327.724 12.8708C327.974 11.7314 328.595 10.707 329.489 9.95819C330.383 9.20942 331.501 8.77848 332.666 8.73293H374.862C375.378 8.71303 375.891 8.81405 376.361 9.02789C376.831 9.24173 377.244 9.56245 377.568 9.96448C377.892 10.3665 378.117 10.8387 378.226 11.3433C378.335 11.8479 378.325 12.371 378.195 12.8708L371.71 46.2136C371.46 47.3533 370.84 48.3774 369.945 49.1263C369.051 49.8751 367.934 50.3058 366.768 50.3518Z" fill="#1C85E8"/>
<path d="M337.824 17.7505L365.921 17.7559C366.123 17.7472 366.323 17.7851 366.508 17.8669C366.692 17.9488 366.855 18.0721 366.984 18.2271C367.113 18.3826 367.203 18.5659 367.25 18.7618C367.296 18.9584 367.296 19.1623 367.25 19.3589L366.865 21.4622C366.801 21.7677 366.667 22.0544 366.473 22.2994C366.28 22.545 366.032 22.7422 365.749 22.8753L350.356 30.2837C350.118 30.4095 349.853 30.4748 349.583 30.473C349.314 30.4718 349.049 30.4034 348.813 30.2746L336.149 22.6418C335.918 22.4972 335.738 22.2843 335.633 22.0326C335.528 21.7804 335.505 21.5027 335.565 21.2366L335.91 19.3528C336.004 18.91 336.243 18.5114 336.59 18.2211C336.938 17.9304 337.372 17.7648 337.824 17.7505Z" fill="white"/>
<path d="M336.43 25.4095L348.544 33.0085C348.709 33.101 348.894 33.15 349.083 33.15C349.272 33.15 349.458 33.101 349.622 33.0085L364.515 25.415C365.315 25.0066 366.122 25.5245 365.972 26.3502L363.758 38.4551C363.589 39.2506 363.158 39.9668 362.535 40.4888C361.911 41.0109 361.13 41.3085 360.317 41.3339L334.805 41.3291C334.443 41.3448 334.082 41.2764 333.751 41.1294C333.42 40.9825 333.127 40.7611 332.896 40.4822C332.665 40.2027 332.501 39.8742 332.418 39.5216C332.335 39.1689 332.335 38.8017 332.418 38.4491L334.631 26.3441C334.666 26.1518 334.744 25.9697 334.86 25.8118C334.977 25.6539 335.127 25.5251 335.301 25.4349C335.475 25.3448 335.667 25.2952 335.863 25.291C336.059 25.2861 336.253 25.3266 336.43 25.4095Z" fill="white"/>
<path d="M376.321 17.4661C381.144 17.4661 385.053 13.5561 385.053 8.73304C385.053 3.90993 381.144 0 376.321 0C371.497 0 367.588 3.90993 367.588 8.73304C367.588 13.5561 371.497 17.4661 376.321 17.4661Z" fill="#2153D3"/>
<path d="M376.932 201.899L384.172 212.658L380.311 194.277L376.932 201.899Z" fill="#2153D3"/>
<defs>
<linearGradient id="paint0_linear_5_3929" x1="252.501" y1="104.606" x2="263.548" y2="292.157" gradientUnits="userSpaceOnUse">
<stop stop-color="white"/>
<stop offset="1" stop-color="#94B9FF"/>
</linearGradient>
<linearGradient id="paint1_linear_5_3929" x1="224.223" y1="160" x2="270.458" y2="484.086" gradientUnits="userSpaceOnUse">
<stop stop-color="white"/>
<stop offset="1" stop-color="#94B9FF"/>
</linearGradient>
<linearGradient id="paint2_linear_5_3929" x1="343.894" y1="160" x2="390.128" y2="484.086" gradientUnits="userSpaceOnUse">
<stop stop-color="white"/>
<stop offset="1" stop-color="#94B9FF"/>
</linearGradient>
<linearGradient id="paint3_linear_5_3929" x1="122.087" y1="362.278" x2="133.36" y2="501.056" gradientUnits="userSpaceOnUse">
<stop stop-color="white"/>
<stop offset="1" stop-color="#94B9FF"/>
</linearGradient>
</defs>
</svg>
