<svg width="429" height="377" viewBox="0 0 429 377" fill="none" xmlns="http://www.w3.org/2000/svg">
<path d="M85.8742 0H348.372C352.344 0 356.149 1.5772 358.957 4.38465C361.762 7.1921 363.338 10.9997 363.338 14.9702V31.4988H70.9085V14.9702C70.9085 10.9997 72.4856 7.1921 75.2918 4.38465C78.0985 1.5772 81.9054 0 85.8742 0Z" fill="#1C85E8"/>
<path d="M70.9085 31.4985H363.338V296.65C363.338 300.244 362.632 303.802 361.257 307.123C359.881 310.443 357.869 313.46 355.326 316.001C352.788 318.543 349.77 320.558 346.452 321.934C343.13 323.309 339.573 324.017 335.981 324.017H98.2675C94.6748 324.017 91.117 323.309 87.7979 321.934C84.4782 320.558 81.4621 318.543 78.9219 316.001C76.3812 313.46 74.3661 310.443 72.9911 307.123C71.6165 303.802 70.9085 300.244 70.9085 296.65V31.4985Z" fill="url(#paint0_linear_3_3123)"/>
<path d="M261.975 219.586H181.766V258.551H261.975V219.586Z" fill="#FFCCB3"/>
<path d="M181.294 243.608C171.887 252.867 168.186 298.463 168.681 324.017H280.657C280.657 324.017 280.456 268.29 271.967 249.511C264.16 232.241 251.183 257.716 181.294 243.608Z" fill="#1F2D49"/>
<path d="M248.498 42.2539C248.498 42.2539 257.789 31.6532 275.823 30.1109C293.857 28.5686 299.254 44.3689 298.483 54.0764C297.712 63.7839 283.579 83.8334 286.405 92.3161C289.232 100.798 275.94 96.686 274.491 79.7205C273.043 62.7556 267.646 39.1075 252.999 47.5898L248.498 42.2539Z" fill="#080B09"/>
<path d="M251.318 37.292C251.318 37.292 253.54 36.0041 255.149 39.0085C256.758 42.0129 259.764 48.1136 255.954 49.7308C252.145 51.3484 251.318 37.292 251.318 37.292Z" fill="#1C85E8"/>
<path d="M199.802 134.994C199.802 134.994 214.209 151.169 209.418 156.357C199.928 167.02 174.688 187.061 166.418 193.695C166.061 193.968 165.654 194.168 165.219 194.283C164.784 194.399 164.331 194.427 163.886 194.366C163.44 194.305 163.011 194.156 162.623 193.928C162.235 193.701 161.896 193.399 161.626 193.039L142.07 167.321C141.305 166.331 140.949 165.085 141.073 163.84C141.198 162.595 141.795 161.445 142.74 160.626L180.62 127.952L199.802 134.994Z" fill="#1C85E8"/>
<path d="M177.058 155.557C177.058 155.557 159.104 166.232 157.486 187.679L161.062 192.274C161.062 192.274 163.307 196.188 166.418 193.694C169.53 191.201 183.922 179.669 183.922 179.669L177.058 155.557Z" fill="#0E66AF"/>
<path d="M193.845 163.688C205.044 163.688 214.123 154.607 214.123 143.404C214.123 132.202 205.044 123.121 193.845 123.121C182.646 123.121 173.568 132.202 173.568 143.404C173.568 154.607 182.646 163.688 193.845 163.688Z" fill="#1C85E8"/>
<path d="M141.042 206.987L123.321 183.516L140.097 170.489L142.727 168.371L161.109 192.417L157.908 194.72L141.042 206.987Z" fill="#FFCCB3"/>
<path d="M157.907 194.72C153.16 188.363 144.234 175.938 140.097 170.489L142.727 168.371L161.062 192.274L157.907 194.72Z" fill="#FF967C"/>
<path d="M131.913 210.243C140.042 210.243 146.633 203.651 146.633 195.518C146.633 187.386 140.042 180.793 131.913 180.793C123.782 180.793 117.192 187.386 117.192 195.518C117.192 203.651 123.782 210.243 131.913 210.243Z" fill="#FFCCB3"/>
<path d="M144.376 187.597C144.376 187.597 96.8915 117.841 94.6966 111.918C92.5604 106.132 81.3445 120.054 81.3445 120.054L118.095 200.26L144.376 187.597Z" fill="#FFCCB3"/>
<path d="M209.749 90.3204L204.041 130.131C204.041 130.131 202.542 135.415 209.192 136.215C215.843 137.015 230.024 135.227 235.088 129.829C240.153 124.43 238.381 121.756 238.381 121.756L227.64 78.5449L209.749 90.3204Z" fill="#FFCCB3"/>
<path d="M208.955 95.472L222.918 90.5386L205.619 116.185L208.955 95.472Z" fill="#FF967C"/>
<path d="M193.951 41.146C193.951 41.146 181.971 69.3019 188.215 88.5992C192.286 101.184 201.153 103.447 221.46 94.0157C240.08 85.3683 244.916 78.8269 244.916 78.8269L247.662 47.4401C247.662 47.4401 206.117 16.0502 193.951 41.146Z" fill="#FFCCB3"/>
<path d="M203.94 118.685C203.94 118.685 188.594 122.949 185.48 125.442C182.365 127.934 180.1 148.191 175.497 158.196C168.683 173.009 164.271 180.89 175.719 197.168C182.624 206.987 180.276 231.948 180.276 231.948H264.34C261.793 182.867 273.064 125.01 273.064 125.01L235.124 116.265C226.57 117.74 203.94 118.685 203.94 118.685Z" fill="#1C85E8"/>
<path d="M201.256 119.476C201.256 119.476 202.391 111.761 206.017 111.218C209.644 110.675 231.805 107.34 235.253 108.792C238.699 110.244 242.872 119.476 242.872 119.476C242.872 119.476 235.797 136.739 225.637 137.647C215.478 138.554 197.991 135.421 199.841 129.003C201.69 122.584 201.256 119.476 201.256 119.476Z" fill="#1C85E8"/>
<path d="M194.354 121.822C194.354 121.822 196.806 136.711 210.119 136.476C223.433 136.241 242.78 116.265 242.78 116.265" stroke="white" stroke-width="1.35709" stroke-miterlimit="10"/>
<path d="M254.675 143.404C254.675 143.404 241.446 152.154 245.343 160.982C249.725 170.909 249.687 196.474 237.111 198.076C214.672 200.935 224.421 204.86 234.796 207.368C245.172 209.876 240.924 209.879 240.924 220.631C240.924 228.283 264.965 234.917 264.34 228.734C260.16 187.367 277.536 161.172 254.675 143.404Z" fill="#0E66AF"/>
<path d="M192.883 82.5708L204.027 83.1222C203.987 83.2594 203.927 83.4471 203.839 83.6679C203.65 84.1471 203.335 84.7782 202.837 85.3892C201.848 86.6009 200.121 87.7525 197.138 87.4507C195.254 87.0896 194.183 85.8226 193.576 84.6231C193.273 84.0225 193.089 83.4428 192.981 83.0133C192.936 82.8369 192.904 82.6867 192.883 82.5708Z" fill="#E56441" stroke="#E56441"/>
<path d="M193.618 64.0622C194.084 62.3352 193.512 60.6793 192.341 60.3631C191.169 60.0469 189.842 61.1906 189.376 62.9176C188.911 64.6445 189.483 66.3005 190.654 66.6167C191.825 66.9324 193.153 65.7891 193.618 64.0622Z" fill="#080B09"/>
<path d="M210.858 68.9791C211.323 67.2521 210.752 65.5962 209.58 65.28C208.409 64.9642 207.082 66.1075 206.616 67.8344C206.15 69.5614 206.722 71.2173 207.894 71.5335C209.065 71.8498 210.392 70.706 210.858 68.9791Z" fill="#080B09"/>
<path d="M189.259 55.1422L198.023 57.6622C198.175 57.6927 198.334 57.6666 198.469 57.5891C198.604 57.5115 198.705 57.3879 198.756 57.2406C198.796 56.9641 198.78 56.6823 198.708 56.4122C198.637 56.1418 198.511 55.8891 198.338 55.6692C198.166 55.4488 197.951 55.2659 197.707 55.1313C197.462 54.9967 197.192 54.9126 196.914 54.8852L189.387 54.0929C188.81 53.937 188.537 54.9475 189.259 55.1422Z" fill="#080B09"/>
<path d="M219.221 62.6357L207.336 60.2031C207.443 59.8495 207.624 59.5219 207.865 59.2423C208.107 58.9623 208.404 58.7362 208.739 58.5785C209.073 58.4209 209.436 58.3346 209.806 58.3259C210.176 58.3172 210.543 58.386 210.884 58.528L219.559 61.9532C219.848 62.0307 219.653 62.7528 219.221 62.6357Z" fill="#080B09"/>
<path d="M198.918 64.5557L193.281 72.149L195.404 75.1512" stroke="#E56441" stroke-width="2.23881" stroke-linecap="round"/>
<path d="M209.401 147.4C210.493 147.4 211.378 144.954 211.378 141.938C211.378 138.922 210.493 136.476 209.401 136.476C208.31 136.476 207.425 138.922 207.425 141.938C207.425 144.954 208.31 147.4 209.401 147.4Z" fill="white"/>
<path d="M300.495 222.546L271.189 224.948L266.186 203.703L260.16 187.366L291.001 183.674L294.856 201.958L300.495 222.546Z" fill="#FFCCB3"/>
<path d="M292.042 188.612L293.123 193.739L262.752 194.392L260.754 188.977L292.042 188.612Z" fill="#FF967C"/>
<path d="M268.022 164.94C279.221 164.94 288.299 155.859 288.299 144.656C288.299 133.454 279.221 124.373 268.022 124.373C256.822 124.373 247.744 133.454 247.744 144.656C247.744 155.859 256.822 164.94 268.022 164.94Z" fill="#1C85E8"/>
<path d="M264.111 135.121C264.111 135.121 285.481 131.611 287.296 138.438C291.217 152.164 296.036 174.201 297.208 184.74C297.248 185.188 297.198 185.639 297.063 186.068C296.928 186.497 296.708 186.895 296.418 187.239C296.128 187.582 295.773 187.865 295.373 188.071C294.973 188.276 294.537 188.401 294.088 188.437L261.903 191.185C260.657 191.301 259.415 190.935 258.43 190.163C257.446 189.391 256.794 188.271 256.61 187.034L247.893 147.554L264.111 135.121Z" fill="#1C85E8"/>
<path d="M201.419 38.4695C201.419 38.4695 202.177 52.1457 213.76 58.7729C213.76 58.7729 217.147 69.2622 229.787 71.7292C229.787 71.7292 229.04 62.0883 235.065 62.1903C245.296 62.3636 240.264 77.8869 233.347 80.4336C228.646 82.1644 225.815 88.3074 232.793 102.307C248.815 96.5911 260.083 73.5053 255.665 47.893C252.128 27.3822 226.708 20.6844 221.485 21.3525C221.485 21.3525 199.795 13.8572 188.374 34.4137C178.611 51.9863 187.729 62.4738 187.729 62.4738L192.932 46.8342C192.932 46.8342 195.105 48.3608 201.419 38.4695Z" fill="#080B09"/>
<path d="M300.603 273.225H222.983C221.482 273.225 220.032 272.677 218.906 271.683C217.781 270.689 217.056 269.319 216.87 267.828L209.705 210.633C209.597 209.765 209.674 208.885 209.931 208.05C210.189 207.214 210.621 206.444 211.199 205.788C211.778 205.133 212.488 204.608 213.285 204.249C214.081 203.889 214.945 203.703 215.819 203.703H307.767C308.641 203.703 309.505 203.889 310.301 204.249C311.098 204.608 311.808 205.133 312.387 205.788C312.965 206.444 313.397 207.214 313.655 208.05C313.912 208.885 313.989 209.765 313.881 210.633L306.716 267.828C306.529 269.319 305.805 270.689 304.68 271.683C303.554 272.677 302.104 273.225 300.603 273.225Z" fill="url(#paint1_linear_3_3123)"/>
<path d="M261.975 242.847C264.985 242.847 267.424 240.407 267.424 237.398C267.424 234.388 264.985 231.948 261.975 231.948C258.967 231.948 256.527 234.388 256.527 237.398C256.527 240.407 258.967 242.847 261.975 242.847Z" fill="white"/>
<path d="M83.3627 124.636L78.6855 115.66C78.6855 115.66 62.1466 106.196 60.2299 102.775C58.3127 99.3531 57.5595 89.5838 60.9527 87.0824C60.9527 87.0824 47.7574 77.1685 50.0037 75.1598C52.2426 73.0056 78.1677 92.2702 78.1677 92.2702C78.1677 92.2702 75.0114 78.0775 79.8079 77.4124C81.1072 82.9134 83.3331 88.153 86.3901 92.9066C91.4401 100.717 92.0623 107.712 92.0623 107.712L98.014 119.138L83.3627 124.636Z" fill="#FFCCB3"/>
<path d="M61.8422 87.333L69.8334 92.3705" stroke="#FF967C" stroke-width="2.87188" stroke-linecap="round" stroke-linejoin="round"/>
<path d="M60.6509 93.0962L67.433 97.3132" stroke="#FF967C" stroke-width="2.87188" stroke-linecap="round" stroke-linejoin="round"/>
<path d="M61.9689 99.3267L66.4925 102.186" stroke="#FF967C" stroke-width="2.87188" stroke-linecap="round" stroke-linejoin="round"/>
<path d="M93.1021 19.5589C95.2056 19.5589 96.9107 17.8533 96.9107 15.7492C96.9107 13.6451 95.2056 11.9395 93.1021 11.9395C90.9986 11.9395 89.2935 13.6451 89.2935 15.7492C89.2935 17.8533 90.9986 19.5589 93.1021 19.5589Z" fill="white"/>
<path d="M108.484 19.5589C110.588 19.5589 112.293 17.8533 112.293 15.7492C112.293 13.6451 110.588 11.9395 108.484 11.9395C106.381 11.9395 104.676 13.6451 104.676 15.7492C104.676 17.8533 106.381 19.5589 108.484 19.5589Z" fill="white"/>
<path d="M122.938 19.5589C125.041 19.5589 126.746 17.8533 126.746 15.7492C126.746 13.6451 125.041 11.9395 122.938 11.9395C120.834 11.9395 119.129 13.6451 119.129 15.7492C119.129 17.8533 120.834 19.5589 122.938 19.5589Z" fill="white"/>
<path opacity="0.7" d="M8.53287 15.2823C23.8452 28.3452 64.227 58.1296 115.514 59.5526C116.563 59.5839 117.558 60.0234 118.288 60.7773C119.018 61.5308 119.426 62.54 119.424 63.5897V144.877C119.425 145.914 119.027 146.912 118.312 147.663C117.598 148.414 116.622 148.862 115.586 148.913C100.166 149.681 41.6929 149.591 2.94778 108.097C2.25677 107.352 1.87447 106.372 1.87752 105.356V18.3607C1.87709 17.5894 2.09741 16.8337 2.51279 16.1834C2.92818 15.5336 3.52078 15.0157 4.22093 14.6921C4.92065 14.3681 5.69917 14.2513 6.46333 14.3563C7.22748 14.4608 7.94549 14.7818 8.53287 15.2823Z" fill="#FEBB94"/>
<path d="M14.3413 39.2368C14.3413 39.2368 26.4246 50.9813 42.9408 58.2767" stroke="white" stroke-width="7.4328" stroke-miterlimit="10" stroke-linecap="round"/>
<path opacity="0.4" d="M14.3413 53.4751C14.3413 53.4751 31.158 69.1657 53.0337 74.9916" stroke="white" stroke-width="7.4328" stroke-miterlimit="10" stroke-linecap="round"/>
<path d="M11.8364 105.539V71.5864L23.7368 80.1049V114.878L11.8364 105.539Z" fill="white"/>
<path d="M31.9226 119.259V95.0679L43.8229 102.187V126.101L31.9226 119.259Z" fill="white"/>
<path d="M82.8089 138.197V114.006L70.9085 112.376V136.291L82.8089 138.197Z" fill="white"/>
<path d="M102.356 139.233V96.8779H90.4556V138.957L102.356 139.233Z" fill="white"/>
<path d="M51.4158 129.859V118.798L63.3161 122.146V134.17L51.4158 129.859Z" fill="white"/>
<g opacity="0.7">
<path d="M38.3376 183.72C53.6499 194.966 94.0317 224.316 145.319 219.655C145.817 219.596 146.323 219.646 146.801 219.8C147.279 219.954 147.719 220.209 148.09 220.548C148.461 220.887 148.754 221.302 148.951 221.764C149.147 222.227 149.242 222.726 149.229 223.228V304.516C149.203 305.592 148.807 306.626 148.108 307.444C147.409 308.262 146.449 308.814 145.391 309.007C129.971 311.604 65.8376 310.322 32.752 277.198C32.4098 276.854 32.139 276.446 31.9552 275.997C31.7715 275.549 31.6787 275.068 31.6822 274.583V187.588C31.6822 184.143 35.7168 181.795 38.3376 183.72Z" fill="#96BAFD"/>
</g>
<path d="M284.798 270.891C284.798 270.891 288.9 271.232 288.282 273.303C287.664 275.374 284.002 274.418 280.657 276.489C277.313 278.56 264.092 280.037 257.488 278.936C250.883 277.835 249.049 270.891 249.049 270.891C249.049 270.891 247.945 264.303 259.61 263.627C271.275 262.951 276.705 266.695 278.734 270.754L284.798 270.891Z" fill="#FFCCB3"/>
<path d="M254.008 264.651L256.527 271.429" stroke="#E56441" stroke-width="2.23881" stroke-linecap="round"/>
<path d="M260.533 263.547L263.053 270.326" stroke="#E56441" stroke-width="2.23881" stroke-linecap="round"/>
<path d="M267.424 264.121L269.943 270.9" stroke="#E56441" stroke-width="2.23881" stroke-linecap="round"/>
<path opacity="0.7" d="M408.943 190.333C387.586 208.554 331.258 250.101 259.718 252.085C258.255 252.129 256.867 252.742 255.848 253.794C254.83 254.845 254.261 256.253 254.263 257.717V371.105C254.262 372.551 254.818 373.942 255.815 374.991C256.811 376.039 258.173 376.663 259.617 376.735C281.126 377.805 362.689 377.681 416.737 319.801C417.7 318.761 418.235 317.394 418.231 315.977V194.627C418.231 193.551 417.922 192.497 417.343 191.59C416.763 190.683 415.936 189.961 414.961 189.51C413.985 189.058 412.897 188.895 411.835 189.041C410.768 189.187 409.766 189.635 408.943 190.333Z" fill="#1C85E8"/>
<path d="M400.845 223.747C400.845 223.747 383.99 240.129 360.952 250.306" stroke="white" stroke-width="10.368" stroke-miterlimit="10" stroke-linecap="round"/>
<path opacity="0.4" d="M400.845 243.608C400.845 243.608 377.384 265.495 346.87 273.621" stroke="white" stroke-width="10.368" stroke-miterlimit="10" stroke-linecap="round"/>
<path d="M389.89 154.461H324.689C323.41 154.461 322.143 154.714 320.962 155.203C319.78 155.693 318.706 156.41 317.802 157.315C316.897 158.22 316.18 159.294 315.69 160.476C315.201 161.658 314.949 162.925 314.949 164.205V184.383C314.949 185.662 315.201 186.929 315.69 188.111C316.18 189.294 316.897 190.368 317.802 191.273C318.706 192.178 319.78 192.895 320.962 193.385C322.143 193.875 323.411 194.127 324.689 194.127H347.837L354.664 200.959C355.304 201.598 356.171 201.958 357.077 201.958C357.982 201.958 358.849 201.598 359.489 200.959L366.316 194.127H389.89C392.472 194.127 394.953 193.1 396.778 191.273C398.607 189.445 399.63 186.967 399.63 184.383V164.205C399.63 161.621 398.607 159.143 396.778 157.315C394.953 155.488 392.472 154.461 389.89 154.461Z" fill="white"/>
<path d="M342.608 167.894C341.737 167.09 340.596 166.643 339.412 166.643C338.227 166.643 337.087 167.09 336.216 167.894L335.012 169.006L333.808 167.894C332.938 167.09 331.797 166.643 330.612 166.643C329.427 166.643 328.286 167.09 327.415 167.894C326.956 168.31 326.589 168.818 326.337 169.384C326.086 169.951 325.956 170.564 325.956 171.184C325.956 171.803 326.086 172.417 326.337 172.983C326.589 173.55 326.956 174.057 327.415 174.473L335.012 181.517L342.608 174.566C343.087 174.153 343.474 173.641 343.735 173.065C344.001 172.489 344.136 171.864 344.136 171.23C344.136 170.597 344.001 169.971 343.735 169.395C343.474 168.819 343.087 168.307 342.608 167.894Z" fill="#F4608A"/>
<path d="M351.09 172.009C351.155 171.156 351.486 170.488 352.078 170.005C352.67 169.523 353.441 169.282 354.386 169.282C355.017 169.282 355.561 169.398 356.014 169.63C356.48 169.852 356.828 170.158 357.059 170.548C357.299 170.938 357.42 171.378 357.42 171.87C357.42 172.445 357.255 172.942 356.92 173.359C356.593 173.777 356.167 174.046 355.64 174.166V174.236C356.241 174.384 356.719 174.676 357.072 175.112C357.425 175.548 357.603 176.119 357.603 176.824C357.603 177.353 357.481 177.831 357.238 178.257C356.998 178.675 356.637 179.004 356.153 179.246C355.67 179.487 355.091 179.607 354.416 179.607C353.432 179.607 352.627 179.352 351.995 178.842C351.364 178.322 351.011 177.59 350.937 176.643H352.161C352.226 177.2 352.452 177.655 352.844 178.007C353.232 178.359 353.754 178.536 354.403 178.536C355.052 178.536 355.544 178.369 355.875 178.035C356.219 177.692 356.393 177.251 356.393 176.713C356.393 176.017 356.158 175.516 355.696 175.21C355.23 174.904 354.529 174.751 353.593 174.751H353.275V173.693H353.611C354.46 173.684 355.108 173.544 355.544 173.276C355.979 172.997 356.197 172.571 356.197 171.995C356.197 171.503 356.036 171.109 355.709 170.812C355.396 170.516 354.939 170.367 354.346 170.367C353.772 170.367 353.306 170.516 352.953 170.812C352.6 171.109 352.391 171.508 352.33 172.009H351.09ZM360.825 177.784L359.271 181.528H358.422L359.436 177.784H360.825ZM368.48 170.576H363.599V173.749C363.812 173.452 364.126 173.211 364.544 173.025C364.962 172.83 365.41 172.733 365.894 172.733C366.664 172.733 367.291 172.895 367.77 173.22C368.254 173.535 368.598 173.948 368.802 174.459C369.016 174.96 369.12 175.493 369.12 176.059C369.12 176.727 368.998 177.325 368.746 177.854C368.497 178.383 368.11 178.8 367.592 179.106C367.082 179.413 366.447 179.566 365.685 179.566C364.714 179.566 363.926 179.315 363.32 178.814C362.72 178.313 362.349 177.645 362.223 176.81H363.46C363.582 177.339 363.834 177.752 364.226 178.049C364.614 178.346 365.106 178.494 365.698 178.494C366.434 178.494 366.982 178.276 367.357 177.84C367.727 177.395 367.91 176.81 367.91 176.087C367.91 175.363 367.727 174.806 367.357 174.417C366.982 174.018 366.438 173.818 365.715 173.818C365.223 173.818 364.792 173.939 364.418 174.18C364.056 174.412 363.795 174.732 363.625 175.14H362.432V169.462H368.48V170.576ZM370.653 178.522C371.828 177.576 372.752 176.801 373.418 176.198C374.088 175.586 374.65 174.95 375.103 174.291C375.569 173.623 375.799 172.97 375.799 172.329C375.799 171.726 375.651 171.253 375.355 170.91C375.068 170.557 374.598 170.381 373.949 170.381C373.318 170.381 372.826 170.581 372.473 170.979C372.129 171.369 371.946 171.893 371.916 172.552H370.692C370.731 171.513 371.045 170.71 371.637 170.145C372.233 169.578 373 169.296 373.936 169.296C374.889 169.296 375.647 169.56 376.2 170.089C376.766 170.618 377.049 171.346 377.049 172.274C377.049 173.044 376.818 173.795 376.357 174.528C375.9 175.252 375.381 175.892 374.798 176.449C374.215 176.996 373.466 177.636 372.556 178.369H377.341V179.426H370.653V178.522ZM384.995 170.465L381.129 179.538H379.849L383.772 170.59H378.403V169.504H384.995V170.465Z" fill="#1C85E8"/>
<path opacity="0.7" d="M7.34417 340.179H56.5014C57.4659 340.179 58.4207 339.99 59.312 339.62C60.2029 339.251 61.0128 338.71 61.6946 338.028C62.3765 337.346 62.9173 336.536 63.2865 335.645C63.6557 334.753 63.8456 333.798 63.8456 332.834V317.621C63.8456 316.656 63.6557 315.701 63.2865 314.809C62.9173 313.918 62.3765 313.108 61.6946 312.426C61.0128 311.744 60.2029 311.203 59.312 310.834C58.4207 310.464 57.4659 310.274 56.5014 310.274H39.0512L33.9015 305.123C33.4195 304.641 32.7655 304.37 32.0837 304.37C31.4022 304.37 30.7482 304.641 30.2662 305.123L25.1166 310.274H7.34417C5.39612 310.274 3.52818 311.048 2.15096 312.426C0.773736 313.804 0 315.672 0 317.621V332.834C0 334.782 0.773736 336.65 2.15096 338.028C3.52818 339.405 5.39612 340.179 7.34417 340.179Z" fill="#1C85E8"/>
<path d="M30.5018 328.966C31.3901 328.253 32.0854 327.669 32.5892 327.214C33.0925 326.752 33.5158 326.273 33.8584 325.777C34.2081 325.273 34.3827 324.78 34.3827 324.297C34.3827 323.842 34.2708 323.486 34.047 323.227C33.8301 322.961 33.477 322.828 32.9876 322.828C32.5121 322.828 32.1416 322.979 31.876 323.279C31.6174 323.573 31.4771 323.968 31.4562 324.465H30.5332C30.5615 323.682 30.7992 323.077 31.2464 322.65C31.694 322.223 32.2709 322.01 32.9772 322.01C33.6973 322.01 34.2673 322.209 34.687 322.608C35.1133 323.007 35.3267 323.556 35.3267 324.255C35.3267 324.836 35.1521 325.402 34.8024 325.955C34.4597 326.501 34.0679 326.983 33.6277 327.403C33.187 327.816 32.624 328.298 31.9387 328.851H35.547V329.648H30.5018V328.966ZM36.4196 328.043V327.319L40.101 322.22H41.2444V327.214H42.2933V328.043H41.2444V329.732H40.3004V328.043H36.4196ZM40.3422 323.217L37.5207 327.214H40.3422V323.217ZM43.226 324.056C43.2748 323.412 43.5229 322.909 43.9706 322.545C44.4182 322.181 44.9986 321.999 45.7118 321.999C46.1873 321.999 46.5961 322.087 46.9388 322.262C47.2884 322.43 47.5506 322.66 47.7256 322.954C47.9072 323.248 47.9982 323.58 47.9982 323.951C47.9982 324.385 47.8723 324.759 47.6207 325.074C47.376 325.388 47.0542 325.591 46.6558 325.682V325.734C47.1104 325.846 47.4704 326.067 47.736 326.396C48.0016 326.724 48.1345 327.154 48.1345 327.686C48.1345 328.085 48.0434 328.445 47.8619 328.767C47.6799 329.082 47.4073 329.33 47.0437 329.512C46.6802 329.694 46.243 329.785 45.7327 329.785C44.9916 329.785 44.3829 329.592 43.9074 329.208C43.4319 328.816 43.1663 328.263 43.1106 327.55H44.0333C44.0825 327.969 44.2536 328.312 44.5475 328.578C44.841 328.844 45.2328 328.977 45.7222 328.977C46.2116 328.977 46.5822 328.851 46.8339 328.599C47.0925 328.34 47.2223 328.008 47.2223 327.602C47.2223 327.078 47.0472 326.7 46.6976 326.469C46.3479 326.238 45.8202 326.123 45.114 326.123H44.8727V325.325H45.1244C45.7675 325.319 46.2535 325.214 46.5822 325.011C46.9109 324.801 47.0751 324.479 47.0751 324.045C47.0751 323.675 46.9527 323.377 46.708 323.153C46.4703 322.93 46.1276 322.818 45.68 322.818C45.2468 322.818 44.8971 322.93 44.6311 323.153C44.3655 323.377 44.2083 323.678 44.1591 324.056H43.226ZM53.6503 323.951C53.4966 323.174 53.0176 322.786 52.2134 322.786C51.5908 322.786 51.1258 323.028 50.8184 323.51C50.5105 323.986 50.3603 324.773 50.3673 325.871C50.5279 325.507 50.794 325.224 51.1645 325.021C51.542 324.811 51.9618 324.706 52.4229 324.706C53.1435 324.706 53.7165 324.93 54.1432 325.378C54.5769 325.826 54.7937 326.444 54.7937 327.235C54.7937 327.711 54.6992 328.137 54.5103 328.515C54.3287 328.893 54.0487 329.194 53.6712 329.417C53.3007 329.641 52.8496 329.753 52.3184 329.753C51.5978 329.753 51.0352 329.592 50.6294 329.27C50.224 328.948 49.9406 328.505 49.7799 327.938C49.6192 327.371 49.5387 326.672 49.5387 325.839C49.5387 323.272 50.4339 321.989 52.2239 321.989C52.9092 321.989 53.4474 322.174 53.8393 322.545C54.2307 322.916 54.4615 323.384 54.5312 323.951H53.6503ZM52.2239 325.514C51.923 325.514 51.64 325.577 51.3744 325.703C51.1084 325.822 50.8915 326.007 50.7239 326.259C50.5632 326.504 50.4827 326.805 50.4827 327.161C50.4827 327.693 50.6364 328.126 50.9442 328.462C51.252 328.791 51.6922 328.956 52.2657 328.956C52.7551 328.956 53.1435 328.805 53.43 328.505C53.7239 328.197 53.8706 327.784 53.8706 327.266C53.8706 326.721 53.7309 326.294 53.4509 325.986C53.1713 325.672 52.7621 325.514 52.2239 325.514Z" fill="white"/>
<path d="M268.992 327.521C268.992 327.521 284.669 324.238 291.837 316.632C301.334 306.554 303.524 294.468 313.929 293.225C330.259 291.274 339.725 348.943 359.55 341.141C379.374 333.339 374.689 290.273 386.485 282.974C394.609 277.945 398.833 292.9 410.21 288.999" stroke="white" stroke-width="10.368" stroke-miterlimit="10" stroke-linecap="round"/>
<path opacity="0.7" d="M114.714 280.2C126.432 283.547 153.848 289.528 189.772 285.403C190.349 285.321 190.938 285.365 191.496 285.533C192.054 285.701 192.569 285.989 193.005 286.376C193.441 286.763 193.787 287.24 194.02 287.775C194.253 288.309 194.367 288.888 194.354 289.471V344.931C194.328 346.155 193.871 347.33 193.063 348.249C192.256 349.169 191.15 349.774 189.941 349.958C177.15 351.708 139.171 355.449 110.869 343.226C110.145 342.906 109.532 342.378 109.107 341.709C108.683 341.041 108.466 340.261 108.485 339.469V285.105C108.485 281.89 111.721 279.345 114.714 280.2Z" fill="url(#paint2_linear_3_3123)"/>
<path d="M9.60225 331.267H11.2124C11.5116 331.266 11.7981 331.147 12.0092 330.936C12.2208 330.725 12.3397 330.438 12.3401 330.139V322.728C12.3397 322.429 12.2208 322.143 12.0092 321.931C11.7981 321.72 11.5116 321.601 11.2124 321.601H9.60225C9.30311 321.601 9.01662 321.72 8.80544 321.931C8.59383 322.143 8.47495 322.429 8.47452 322.728V330.139C8.47495 330.438 8.59383 330.725 8.80544 330.936C9.01662 331.147 9.30311 331.266 9.60225 331.267Z" fill="white"/>
<path d="M16.7082 316.929C16.0643 316.929 15.7421 317.251 15.7421 318.862C15.7421 320.393 14.2599 321.625 13.3063 322.26V330.243C14.3378 330.721 16.4022 331.428 19.6073 331.428H20.6379C21.2457 331.429 21.8335 331.214 22.2981 330.823C22.7627 330.431 23.074 329.888 23.1764 329.289L23.8979 325.1C23.9619 324.73 23.9444 324.35 23.846 323.988C23.7481 323.625 23.5722 323.289 23.3305 323.001C23.0884 322.714 22.7867 322.483 22.4466 322.325C22.1061 322.166 21.7351 322.084 21.3598 322.084H18.3188C18.6611 321.269 18.8261 320.39 18.8022 319.507C18.8022 317.573 17.3527 316.929 16.7082 316.929V316.929Z" fill="white"/>
<path d="M63.2578 265.965C54.7132 262.952 47.7865 253.579 47.7865 245.032C47.7865 236.485 54.7132 231.999 63.2578 235.013V225.079C49.4538 220.21 38.2635 227.457 38.2635 241.265C38.2635 255.073 49.4538 270.214 63.2578 275.083C76.4788 279.746 87.295 273.291 88.1858 260.607L78.6689 257.25C77.9962 264.939 71.3557 268.821 63.2578 265.965Z" fill="white"/>
<path d="M66.4315 223.024V232.957C74.9761 235.971 81.9027 245.344 81.9027 253.891C81.9027 254.338 81.8797 254.771 81.8426 255.195L91.3591 258.551C91.3983 257.992 91.4257 257.425 91.4257 256.841C91.4257 243.033 80.2351 227.892 66.4315 223.024Z" fill="#1C85E8"/>
<path d="M63.2578 265.965V275.083" stroke="white" stroke-width="2.42819" stroke-miterlimit="10"/>
<path d="M47.7865 245.032L38.2635 241.673" stroke="white" stroke-width="2.42819" stroke-miterlimit="10"/>
<path d="M103.34 246.452L121.011 249.811" stroke="white" stroke-width="10.368" stroke-miterlimit="10" stroke-linecap="round"/>
<path opacity="0.4" d="M103.34 274.148L121.011 277.507" stroke="white" stroke-width="10.368" stroke-miterlimit="10" stroke-linecap="round"/>
<path d="M103.34 260.582L128.727 265.407" stroke="white" stroke-width="10.368" stroke-miterlimit="10" stroke-linecap="round"/>
<g opacity="0.7">
<path d="M422.036 8.85374C406.723 20.1003 378.712 48.4604 317.578 57.8831C312.898 58.6043 311.145 61.9354 311.145 65.6162V143.152C311.171 144.228 311.567 145.262 312.266 146.08C312.965 146.898 313.925 147.45 314.983 147.643C330.404 150.24 389.789 135.087 425.302 104.579C428.694 101.665 428.694 96.777 428.694 95.7613V12.7221C428.694 9.27691 424.658 6.92892 422.036 8.85374Z" fill="url(#paint3_linear_3_3123)"/>
</g>
<path d="M319.228 71.7004V119.658C319.228 120.076 319.322 120.488 319.502 120.864C319.682 121.24 319.945 121.571 320.27 121.833C320.596 122.094 320.976 122.278 321.382 122.373C321.789 122.467 322.211 122.469 322.619 122.378C331.352 120.421 354.973 114.765 369.891 107.725C370.37 107.499 370.77 107.143 371.053 106.697C371.332 106.251 371.484 105.734 371.48 105.206V58.5033C371.484 58.0364 371.367 57.5769 371.14 57.1666C370.918 56.7567 370.596 56.41 370.2 56.1579C369.808 55.9057 369.36 55.7563 368.894 55.7236C368.428 55.691 367.962 55.7759 367.535 55.971C359.223 59.8008 339.246 68.1668 321.871 68.9194C321.157 68.9534 320.484 69.2617 319.992 69.7796C319.5 70.2975 319.226 70.9856 319.228 71.7004Z" fill="white"/>
<path d="M321.388 111.938V116.982C321.388 117.364 321.476 117.741 321.645 118.083C321.814 118.426 322.06 118.724 322.363 118.956C322.667 119.188 323.02 119.346 323.394 119.419C323.769 119.492 324.156 119.478 324.524 119.377L350.654 112.231C351.068 112.119 351.442 111.902 351.747 111.602C352.052 111.301 352.27 110.928 352.387 110.517C352.505 110.106 352.513 109.672 352.413 109.257C352.313 108.841 352.108 108.459 351.821 108.146L337.809 93.069C337.557 92.7985 337.252 92.5873 336.908 92.4514C336.564 92.3151 336.194 92.2571 335.826 92.282C335.457 92.3068 335.099 92.4135 334.777 92.5942C334.455 92.7754 334.177 93.0259 333.964 93.3277L321.842 110.506C321.546 110.925 321.388 111.425 321.388 111.938Z" fill="#1C85E8"/>
<path opacity="0.6" d="M348.029 100.107L355.87 108.431C356.123 108.698 356.449 108.885 356.807 108.965C357.164 109.046 357.538 109.018 357.882 108.884C360.198 107.979 365.402 105.933 368.036 104.8C368.367 104.657 368.646 104.421 368.846 104.12C369.042 103.819 369.146 103.467 369.146 103.106V95.3075C369.146 94.9094 369.016 94.5222 368.78 94.2038L357.756 79.431C357.555 79.1657 357.29 78.9584 356.985 78.8312C356.68 78.704 356.345 78.6614 356.018 78.7075C355.692 78.7541 355.383 78.8874 355.121 79.0943C354.865 79.3012 354.669 79.5734 354.551 79.8831L347.645 98.1904C347.523 98.514 347.493 98.8651 347.563 99.2039C347.628 99.5428 347.793 99.8555 348.029 100.107Z" fill="#1C85E8"/>
<path d="M341.145 87.1112C343.47 87.1112 345.355 85.2261 345.355 82.9003C345.355 80.5745 343.47 78.6895 341.145 78.6895C338.819 78.6895 336.934 80.5745 336.934 82.9003C336.934 85.2261 338.819 87.1112 341.145 87.1112Z" fill="#FEBB94"/>
<path d="M383.62 54.4059C394.422 48.9259 404.82 42.6779 414.73 35.7109" stroke="white" stroke-width="10.368" stroke-miterlimit="10" stroke-linecap="round"/>
<path d="M383.62 72.5963C383.62 72.5963 390.699 69.1446 400.414 63.249" stroke="white" stroke-width="10.368" stroke-miterlimit="10" stroke-linecap="round"/>
<path d="M383.62 90.381C394.422 84.9005 404.82 78.653 414.73 71.686" stroke="white" stroke-width="10.368" stroke-miterlimit="10" stroke-linecap="round"/>
<path d="M383.62 110.348C394.422 104.868 404.82 98.6203 414.73 91.6533" stroke="white" stroke-width="10.368" stroke-miterlimit="10" stroke-linecap="round"/>
<path d="M325.232 136.208C327.356 136.208 329.077 134.487 329.077 132.362C329.077 130.238 327.356 128.516 325.232 128.516C323.109 128.516 321.388 130.238 321.388 132.362C321.388 134.487 323.109 136.208 325.232 136.208Z" fill="white"/>
<path d="M347.528 129.986C349.648 129.986 351.373 128.264 351.373 126.14C351.373 124.016 349.648 122.294 347.528 122.294C345.403 122.294 343.683 124.016 343.683 126.14C343.683 128.264 345.403 129.986 347.528 129.986Z" fill="white"/>
<path d="M367.635 123.115C369.76 123.115 371.48 121.393 371.48 119.269C371.48 117.145 369.76 115.423 367.635 115.423C365.515 115.423 363.791 117.145 363.791 119.269C363.791 121.393 365.515 123.115 367.635 123.115Z" fill="white"/>
<defs>
<linearGradient id="paint0_linear_3_3123" x1="181.863" y1="-333.135" x2="338.715" y2="639.141" gradientUnits="userSpaceOnUse">
<stop stop-color="white"/>
<stop offset="1" stop-color="#94B9FF"/>
</linearGradient>
<linearGradient id="paint1_linear_3_3123" x1="259.197" y1="203.538" x2="269.922" y2="351.897" gradientUnits="userSpaceOnUse">
<stop stop-color="white"/>
<stop offset="1" stop-color="#94B9FF"/>
</linearGradient>
<linearGradient id="paint2_linear_3_3123" x1="149.282" y1="279.862" x2="163.154" y2="432.759" gradientUnits="userSpaceOnUse">
<stop stop-color="white"/>
<stop offset="1" stop-color="#94B9FF"/>
</linearGradient>
<linearGradient id="paint3_linear_3_3123" x1="355.744" y1="-166.063" x2="443.91" y2="293.681" gradientUnits="userSpaceOnUse">
<stop stop-color="white"/>
<stop offset="1" stop-color="#94B9FF"/>
</linearGradient>
</defs>
</svg>
